<svg width="19" height="14" viewBox="0 0 19 14" fill="none" xmlns="http://www.w3.org/2000/svg">
<path d="M18.531 1.78055L6.53104 13.7806C6.46139 13.8503 6.37867 13.9056 6.28762 13.9433C6.19657 13.9811 6.09898 14.0005 6.00042 14.0005C5.90186 14.0005 5.80426 13.9811 5.71321 13.9433C5.62216 13.9056 5.53945 13.8503 5.46979 13.7806L0.219792 8.53055C0.0790615 8.38982 0 8.19895 0 7.99993C0 7.80091 0.0790615 7.61003 0.219792 7.4693C0.360523 7.32857 0.551394 7.24951 0.750417 7.24951C0.94944 7.24951 1.14031 7.32857 1.28104 7.4693L6.00042 12.1896L17.4698 0.719303C17.6105 0.578573 17.8014 0.499512 18.0004 0.499512C18.1994 0.499512 18.3903 0.578573 18.531 0.719303C18.6718 0.860034 18.7508 1.05091 18.7508 1.24993C18.7508 1.44895 18.6718 1.63982 18.531 1.78055Z" fill="#48E5C2"/>
</svg>
